# xmcd CD database file
#
# Track frame offsets:
#	150
#	11836
#	26167
#	42687
#	53384
#	69057
#	93004
#	110232
#	127672
#	156819
#
# Disc length: 2284 seconds
#
# Revision: 0
# Processed by: cddbd v1.5.1PL0 Copyright (c) Steve Scherf et al.
# Submitted via: CDex 1.51
#
DISCID=7608ea0a
DTITLE=Ides Of Space - Sleeping Fractures
DYEAR=2004
DGENRE=Rock
TTITLE0=Past Midnight
TTITLE1=Draw My Eyes
TTITLE2=Don't Expect Too Much
TTITLE3=The Seasons
TTITLE4=Moving
TTITLE5=Reinventing Dream
TTITLE6=Way Out At Sea
TTITLE7=And Finally
TTITLE8=Stars Are Nodding
TTITLE9=On The Other Side Of Recognition
EXTD=YEAR: 2004
EXTT0=
EXTT1=
EXTT2=
EXTT3=
EXTT4=
EXTT5=
EXTT6=
EXTT7=
EXTT8=
EXTT9=
PLAYORDER=
